<svg width="124" height="20" viewBox="0 0 124 20" fill="none" xmlns="http://www.w3.org/2000/svg">
<path d="M64.3912 7.74567H71.0025V11.8141H64.3912C65.1736 13.8875 67.1687 15.374 69.5159 15.4523H71.0025V19.5207H69.4377C64.1956 19.3642 59.9707 15.0611 59.9707 9.7799C59.9707 4.4596 64.2348 0.156422 69.5159 0.0390625H71.0025V4.10752H69.5159C67.1687 4.18576 65.1736 5.67232 64.3912 7.74567Z" fill="#FE3B1F"/>
<path d="M32.8217 19.5207H28.0491V0.0390625H32.7435C37.9855 0.195542 42.2104 4.49872 42.2104 9.7799C42.2104 15.0219 38.0246 19.3251 32.8217 19.5207ZM32.1175 15.4523H32.4696C35.5992 15.4523 38.142 12.9095 38.142 9.7799C38.142 6.65031 35.5992 4.10752 32.4696 4.10752H32.1175V15.4523Z" fill="#FE3B1F"/>
<path d="M49.7604 19.5207H49.4083H44.9878V0.0390625H50.5819C53.5159 0.0390625 55.9413 2.42537 55.9413 5.39848C55.9413 6.21999 55.7457 7.00239 55.3937 7.70655L55.2763 7.94126L55.511 8.09774C57.1149 9.27134 58.0929 11.1882 58.0929 13.1833C58.0929 16.5867 55.3937 19.3642 51.9902 19.4816H49.7604V19.5207ZM49.0954 15.4523H51.7946C53.0074 15.4523 54.0245 14.4352 54.0245 13.2224C54.0245 12.0097 53.0074 10.9926 51.7946 10.9926H49.0954V15.4523ZM49.0954 6.68943H50.621C51.3252 6.68943 51.912 6.10263 51.912 5.39848C51.912 4.69432 51.3252 4.10752 50.621 4.10752H49.0954V6.68943Z" fill="#FE3B1F"/>
<path d="M108.479 19.5207V10.9926L102.533 0.0390625H107.619L110.748 5.82879L113.878 0.0390625H118.963L112.978 10.9926V19.5207H108.479Z" fill="#FE3B1F"/>
<path d="M9.42787 19.5207L5.67237 12.7921H4.30318V19.5207H0V0.0390625H5.98533C9.50611 0.0390625 12.3619 2.89481 12.3619 6.41559C12.3619 8.4107 11.4621 10.2493 9.89731 11.462L9.66259 11.6576L14.0831 19.5207H9.42787ZM4.30318 8.48894H6.02445C7.15892 8.48894 8.0978 7.55007 8.0978 6.41559C8.0978 5.28112 7.15892 4.34224 6.02445 4.34224H4.30318V8.48894Z" fill="#FE3B1F"/>
<path d="M83.2079 19.5207L79.4524 12.7921H78.0832V19.5207H73.78V0.0390625H79.7654C83.2861 0.0390625 86.1419 2.89481 86.1419 6.41559C86.1419 8.4107 85.2421 10.2493 83.6773 11.462L83.4426 11.6576L87.8632 19.5207H83.2079ZM78.0832 8.48894H79.7654C80.8998 8.48894 81.8387 7.55007 81.8387 6.41559C81.8387 5.28112 80.8998 4.34224 79.7654 4.34224H78.0832V8.48894Z" fill="#FE3B1F"/>
<path d="M99.286 19.5207L95.5305 12.7921H94.1613V19.5207H89.8582V0.0390625H95.8435C99.3643 0.0390625 102.22 2.89481 102.22 6.41559C102.22 8.4107 101.32 10.2493 99.7555 11.462L99.5208 11.6576L103.941 19.5207H99.286ZM94.1613 8.48894H95.8435C96.978 8.48894 97.9168 7.55007 97.9168 6.41559C97.9168 5.28112 96.978 4.34224 95.8435 4.34224H94.1613V8.48894Z" fill="#FE3B1F"/>
<path d="M18.6603 7.74567H25.2715V11.8141H18.6603C19.4427 13.8875 21.4378 15.374 23.785 15.4523H25.2715V19.5207H23.7067C18.4647 19.3642 14.2397 15.0611 14.2397 9.7799C14.2397 4.4596 18.5038 0.156422 23.785 0.0390625H25.2715V4.10752H23.785C21.4378 4.18576 19.4427 5.67232 18.6603 7.74567Z" fill="#FE3B1F"/>
<path d="M122.719 2.26895C122.484 2.50367 122.171 2.66015 121.819 2.66015C121.623 2.66015 121.467 2.62103 121.311 2.54279C121.154 2.46455 120.998 2.38631 120.88 2.26895C120.763 2.15159 120.685 1.99511 120.606 1.83863C120.528 1.68215 120.489 1.52567 120.489 1.33007C120.489 1.13447 120.528 0.977995 120.606 0.821516C120.685 0.665037 120.763 0.508558 120.88 0.391198C120.998 0.273839 121.154 0.195599 121.311 0.11736C121.467 0.0391199 121.623 0 121.819 0C121.976 0 122.171 0.0391199 122.328 0.11736C122.484 0.195599 122.641 0.273839 122.758 0.391198C122.875 0.508558 122.954 0.665037 123.032 0.821516C123.11 0.977995 123.149 1.13447 123.149 1.33007C123.11 1.68215 122.993 1.99511 122.719 2.26895ZM121.819 0.234719C121.663 0.234719 121.545 0.273839 121.389 0.312959C121.271 0.352078 121.154 0.430318 121.037 0.547678C120.958 0.665037 120.88 0.743276 120.802 0.899756C120.763 1.01712 120.724 1.17359 120.724 1.33007C120.724 1.48655 120.763 1.60391 120.802 1.76039C120.841 1.87775 120.919 1.99511 121.037 2.11247C121.115 2.19071 121.232 2.26895 121.389 2.34719C121.506 2.38631 121.663 2.42543 121.819 2.42543C121.976 2.42543 122.093 2.38631 122.21 2.34719C122.328 2.30807 122.445 2.22983 122.562 2.11247C122.641 1.99511 122.719 1.91687 122.797 1.76039C122.836 1.64303 122.875 1.48655 122.875 1.33007C122.875 1.17359 122.836 1.05623 122.797 0.899756C122.758 0.782396 122.68 0.665037 122.562 0.547678C122.484 0.430318 122.367 0.352078 122.21 0.312959C122.093 0.273839 121.976 0.234719 121.819 0.234719ZM121.271 2.03423V0.547678H121.78C122.015 0.547678 122.171 0.586797 122.289 0.665037C122.406 0.743276 122.445 0.860636 122.445 0.977996C122.445 1.05624 122.406 1.13447 122.367 1.21271C122.328 1.29095 122.249 1.33007 122.132 1.36919L122.484 1.99511L122.21 2.03423L121.858 1.40831H121.506V2.03423H121.271ZM121.78 1.21271C122.015 1.21271 122.171 1.13447 122.171 0.977996C122.171 0.821516 122.054 0.743277 121.78 0.743277H121.506V1.17359H121.78V1.21271Z" fill="#FE3B1F"/>
</svg>
